<svg xmlns="http://www.w3.org/2000/svg" viewBox="0 0 24 30" fill="none" x="0px" y="0px" transform="scale(-1, 1)">
  <path fill-rule="evenodd" clip-rule="evenodd" d="M11 15C11 15.5523 10.5523 16 10 16H6C5.44772 16 5 15.5523 5 15V11C5 10.4477 5.44772 10 6 10C6.55228 10 7 10.4477 7 11V12.5858L9.58579 10C10.3668 9.219 11.6332 9.219 12.4142 10L14 11.5858L17.2929 8.29289C17.6834 7.90237 18.3166 7.90237 18.7071 8.29289C19.0976 8.68342 19.0976 9.31658 18.7071 9.70711L15.4142 13C14.6332 13.781 13.3668 13.781 12.5858 13L11 11.4142L8.41421 14H10C10.5523 14 11 14.4477 11 15Z" fill="red"/>
  <text x="0" y="39" fill="#000000" font-size="5px" font-weight="bold" font-family="'Helvetica Neue', Helvetica, Arial-Unicode, Arial, Sans-serif">Created by Osama Khan</text>
  <text x="0" y="44" fill="#000000" font-size="5px" font-weight="bold" font-family="'Helvetica Neue', Helvetica, Arial-Unicode, Arial, Sans-serif">from the Noun Project</text>
</svg>