<svg xmlns="http://www.w3.org/2000/svg" viewBox="0 0 24 30" fill="none" x="0px" y="0px">
  <path fill-rule="evenodd" clip-rule="evenodd" d="M13 9C13 8.44772 13.4477 8 14 8H18C18.5523 8 19 8.44772 19 9V13C19 13.5523 18.5523 14 18 14C17.4477 14 17 13.5523 17 13V11.4142L14.4142 14C13.6332 14.781 12.3668 14.781 11.5858 14L10 12.4142L6.70711 15.7071C6.31658 16.0976 5.68342 16.0976 5.29289 15.7071C4.90237 15.3166 4.90237 14.6834 5.29289 14.2929L8.58579 11C9.36684 10.2189 10.6332 10.219 11.4142 11L13 12.5858L15.5858 10H14C13.4477 10 13 9.55228 13 9Z" fill="green"/>
  <text x="0" y="39" fill="#000000" font-size="5px" font-weight="bold" font-family="'Helvetica Neue', Helvetica, Arial-Unicode, Arial, Sans-serif">Created by Osama Khan</text>
  <text x="0" y="44" fill="#000000" font-size="5px" font-weight="bold" font-family="'Helvetica Neue', Helvetica, Arial-Unicode, Arial, Sans-serif">from the Noun Project</text>
</svg>